<svg xmlns="http://www.w3.org/2000/svg" width="327" height="85" viewBox="0 0 327 85">
    <defs>
        <linearGradient id="a" x1="100%" x2="-32.36%" y1="0%" y2="111.583%">
            <stop offset="0%" stop-color="#0260C0"/>
            <stop offset="100%" stop-color="#00FFB4"/>
        </linearGradient>
    </defs>
    <g fill="none" fill-rule="evenodd">
        <path fill="url(#a)" d="M8.2 57.8c-.933.933-2.093 1.4-3.48 1.4-1.333 0-2.453-.467-3.36-1.4C.453 56.867 0 55.707 0 54.32V4.88C0 3.493.467 2.333 1.4 1.4 2.333.467 3.493 0 4.88 0c1.333 0 2.453.467 3.36 1.4.907.933 1.36 2.093 1.36 3.48v49.44c0 1.387-.467 2.547-1.4 3.48zm47.04-8.48c-1.92 3.387-4.547 6.013-7.88 7.88s-7 2.8-11 2.8c-4.053 0-7.733-.933-11.04-2.8-3.307-1.867-5.92-4.493-7.84-7.88-1.92-3.387-2.88-7.213-2.88-11.48s.96-8.093 2.88-11.48c1.92-3.387 4.533-6.027 7.84-7.92 3.307-1.893 6.987-2.84 11.04-2.84 4 0 7.667.947 11 2.84 3.333 1.893 5.96 4.533 7.88 7.92 1.92 3.387 2.88 7.213 2.88 11.48s-.96 8.093-2.88 11.48zm-8.36-18.48c-1.093-2.053-2.56-3.64-4.4-4.76-1.84-1.12-3.88-1.68-6.12-1.68s-4.28.56-6.12 1.68c-1.84 1.12-3.307 2.707-4.4 4.76-1.093 2.053-1.64 4.387-1.64 7 0 2.613.547 4.933 1.64 6.96s2.56 3.6 4.4 4.72c1.84 1.12 3.88 1.68 6.12 1.68s4.28-.56 6.12-1.68c1.84-1.12 3.307-2.693 4.4-4.72 1.093-2.027 1.64-4.347 1.64-6.96 0-2.613-.547-4.947-1.64-7zm45.6 16.52c2.187-2.56 3.28-5.76 3.28-9.6s-1.08-7.027-3.24-9.56c-2.16-2.533-4.973-3.8-8.44-3.8-3.467 0-6.293 1.267-8.48 3.8-2.187 2.533-3.28 5.72-3.28 9.56 0 3.84 1.093 7.04 3.28 9.6 2.187 2.56 5.013 3.84 8.48 3.84 3.413 0 6.213-1.28 8.4-3.84zm2.64-28.92c2.987 1.893 5.347 4.52 7.08 7.88 1.733 3.36 2.6 7.173 2.6 11.44 0 4.267-.853 8.093-2.56 11.48-1.707 3.387-4.04 6.027-7 7.92-2.96 1.893-6.227 2.84-9.8 2.84-2.56 0-4.574-.28-7.24-1.56-2.666-1.28-5.64-1.104-7 .16-1.36 1.264-2.053 1.4-3.44 1.4s-2.533-.453-3.44-1.36-1.36-2.08-1.36-3.52V4.88c0-1.387.453-2.547 1.36-3.48.907-.933 2.053-1.4 3.44-1.4s2.533.467 3.44 1.4c.907.933 1.36 2.093 1.36 3.48V21.6c1.28-1.6 3.067-3 5.36-4.2 2.293-1.2 4.693-1.8 7.2-1.8 3.68 0 7.013.947 10 2.84zm47 0c2.987 1.893 5.347 4.52 7.08 7.88 1.733 3.36 2.6 7.173 2.6 11.44 0 4.267-.853 8.093-2.56 11.48-1.707 3.387-4.04 6.027-7 7.92-2.96 1.893-6.227 2.84-9.8 2.84-2.56 0-4.574-.28-7.24-1.56-2.666-1.28-5.64-1.104-7 .16-1.36 1.264-2.053 1.4-3.44 1.4s-2.533-.453-3.44-1.36-1.36-2.08-1.36-3.52V4.88c0-1.387.453-2.547 1.36-3.48.907-.933 2.053-1.4 3.44-1.4s2.533.467 3.44 1.4c.907.933 1.36 2.093 1.36 3.48V21.6c1.28-1.6 3.067-3 5.36-4.2 2.293-1.2 4.693-1.8 7.2-1.8 3.68 0 7.013.947 10 2.84zm-2.8 28.92c2.187-2.56 3.28-5.76 3.28-9.6s-1.08-7.027-3.24-9.56c-2.16-2.533-4.973-3.8-8.44-3.8-3.467 0-6.293 1.267-8.48 3.8-2.187 2.533-3.28 5.72-3.28 9.56 0 3.84 1.093 7.04 3.28 9.6 2.187 2.56 5.013 3.84 8.48 3.84 3.413 0 6.213-1.28 8.4-3.84zM192 17.8c.907.933 1.36 2.093 1.36 3.48v34c0 6.933-1.867 11.987-5.6 15.16-3.733 3.173-8.72 4.76-14.96 4.76-1.813 0-3.667-.147-5.56-.44-1.893-.293-3.427-.68-4.6-1.16-2.613-1.12-3.92-2.667-3.92-4.64 0-.373.08-.8.24-1.28.32-1.173.867-2.067 1.64-2.68.773-.613 1.613-.92 2.52-.92.533 0 1.04.08 1.52.24.373.16 1.027.427 1.96.8.933.373 1.92.68 2.96.92s2.12.36 3.24.36c3.787 0 6.573-.813 8.36-2.44 1.787-1.627 2.68-4.413 2.68-8.36v-.8c-2.773 3.467-7.093 5.2-12.96 5.2-2.773 0-5.227-.653-7.36-1.96s-3.787-3.12-4.96-5.44c-1.173-2.32-1.76-4.973-1.76-7.96V21.28c0-1.387.453-2.547 1.36-3.48.907-.933 2.053-1.4 3.44-1.4s2.533.467 3.44 1.4c.907.933 1.36 2.093 1.36 3.48v20.48c0 3.36.733 5.773 2.2 7.24 1.467 1.467 3.613 2.2 6.44 2.2 2.773 0 4.92-.813 6.44-2.44 1.52-1.627 2.28-3.96 2.28-7V21.28c0-1.387.453-2.547 1.36-3.48.907-.933 2.053-1.4 3.44-1.4s2.533.467 3.44 1.4zm37.44-12.16c2.453 1.627 4.427 3.813 5.92 6.56 1.493 2.747 2.24 5.747 2.24 9 0 3.2-.747 6.187-2.24 8.96-1.493 2.773-3.467 4.973-5.92 6.6-2.453 1.627-5.04 2.44-7.76 2.44h-13.92v15.12c0 1.44-.427 2.613-1.28 3.52s-1.973 1.36-3.36 1.36c-1.333 0-2.427-.467-3.28-1.4-.853-.933-1.28-2.093-1.28-3.48V8.08c0-1.387.467-2.547 1.4-3.48.933-.933 2.093-1.4 3.48-1.4h18.24c2.72 0 5.307.813 7.76 2.44zm-4.76 23.16c.987-.853 1.787-1.96 2.4-3.32.613-1.36.92-2.787.92-4.28 0-1.493-.307-2.92-.92-4.28-.613-1.36-1.413-2.453-2.4-3.28-.987-.827-1.987-1.24-3-1.24h-13.92v17.68h13.92c1.013 0 2.013-.427 3-1.28zm58-11.84c.907.907 1.36 2.08 1.36 3.52v33.84c0 1.387-.453 3.347-1.36 4.28-.907.933-2.053 1.4-3.44 1.4s-2-.184-3.4-1.4-4.533-1.333-6.8-.24a16.278 16.278 0 0 1-7.16 1.64c-3.68 0-7.013-.947-10-2.84-2.987-1.893-5.347-4.52-7.08-7.88-1.733-3.36-2.6-7.173-2.6-11.44 0-4.267.853-8.093 2.56-11.48 1.707-3.387 4.04-6.027 7-7.92 2.96-1.893 6.227-2.84 9.8-2.84 2.56 0 4.96.467 7.2 1.4 1.493.622 3.387 1.809 5.68 3.56.302-1.751.756-2.938 1.36-3.56.907-.933 2.053-1.4 3.44-1.4s2.533.453 3.44 1.36zM271.56 47.4c2.187-2.533 3.28-5.72 3.28-9.56 0-3.84-1.093-7.04-3.28-9.6-2.187-2.56-5.013-3.84-8.48-3.84-3.413 0-6.213 1.28-8.4 3.84-2.187 2.56-3.28 5.76-3.28 9.6s1.08 7.027 3.24 9.56c2.16 2.533 4.973 3.8 8.44 3.8 3.467 0 6.293-1.267 8.48-3.8zm53.12-29.6c.907.933 1.36 2.093 1.36 3.48v34c0 6.933-1.867 11.987-5.6 15.16-3.733 3.173-8.72 4.76-14.96 4.76-1.813 0-3.667-.147-5.56-.44-1.893-.293-3.427-.68-4.6-1.16-2.613-1.12-3.92-2.667-3.92-4.64 0-.373.08-.8.24-1.28.32-1.173.867-2.067 1.64-2.68.773-.613 1.613-.92 2.52-.92.533 0 1.04.08 1.52.24.373.16 1.027.427 1.96.8.933.373 1.92.68 2.96.92s2.12.36 3.24.36c3.787 0 6.573-.813 8.36-2.44 1.787-1.627 2.68-4.413 2.68-8.36v-.8c-2.773 3.467-7.093 5.2-12.96 5.2-2.773 0-5.227-.653-7.36-1.96s-3.787-3.12-4.96-5.44c-1.173-2.32-1.76-4.973-1.76-7.96V21.28c0-1.387.453-2.547 1.36-3.48.907-.933 2.053-1.4 3.44-1.4s2.533.467 3.44 1.4c.907.933 1.36 2.093 1.36 3.48v20.48c0 3.36.733 5.773 2.2 7.24 1.467 1.467 3.613 2.2 6.44 2.2 2.773 0 4.92-.813 6.44-2.44 1.52-1.627 2.28-3.96 2.28-7V21.28c0-1.387.453-2.547 1.36-3.48.907-.933 2.053-1.4 3.44-1.4s2.533.467 3.44 1.4z"/>
        <path fill="#4A4A4A" d="M6.538 74.867c.523.331.936.791 1.239 1.379.303.588.455 1.255.455 2.002 0 .747-.15 1.416-.448 2.009a3.442 3.442 0 0 1-1.225 1.386 3.118 3.118 0 0 1-1.715.497c-.448 0-.87-.091-1.267-.273a3.36 3.36 0 0 1-.987-.665v2.744a.84.84 0 0 1-.238.609.804.804 0 0 1-.602.245.816.816 0 0 1-.602-.238.834.834 0 0 1-.238-.616v-8.582a.84.84 0 0 1 .238-.609.804.804 0 0 1 .602-.245c.243 0 .443.082.602.245a.84.84 0 0 1 .238.609v.056c.224-.28.537-.525.938-.735.401-.21.821-.315 1.26-.315a3.2 3.2 0 0 1 1.75.497zm-.49 5.061c.383-.448.574-1.008.574-1.68 0-.672-.189-1.23-.567-1.673-.378-.443-.87-.665-1.477-.665-.607 0-1.101.222-1.484.665-.383.443-.574 1.001-.574 1.673 0 .672.191 1.232.574 1.68.383.448.877.672 1.484.672.597 0 1.087-.224 1.47-.672zm10.276.343a3.56 3.56 0 0 1-1.379 1.379 3.873 3.873 0 0 1-1.925.49c-.71 0-1.353-.163-1.932-.49a3.575 3.575 0 0 1-1.372-1.379c-.336-.593-.504-1.262-.504-2.009 0-.747.168-1.416.504-2.009a3.625 3.625 0 0 1 1.372-1.386 3.819 3.819 0 0 1 1.932-.497c.7 0 1.342.166 1.925.497a3.61 3.61 0 0 1 1.379 1.386c.336.593.504 1.262.504 2.009 0 .747-.168 1.416-.504 2.009zm-1.463-3.234a2.112 2.112 0 0 0-.77-.833 2.02 2.02 0 0 0-1.071-.294 2.02 2.02 0 0 0-1.071.294 2.112 2.112 0 0 0-.77.833c-.191.36-.287.768-.287 1.225 0 .457.096.863.287 1.218.191.355.448.63.77.826a2.02 2.02 0 0 0 1.071.294 2.02 2.02 0 0 0 1.071-.294c.322-.196.579-.471.77-.826.191-.355.287-.76.287-1.218 0-.457-.096-.866-.287-1.225zm12.558-2.282a.872.872 0 0 1 .231.623c0 .084-.019.191-.056.322l-2.142 5.768a.758.758 0 0 1-.301.399.82.82 0 0 1-.469.147L24.57 82c-.317-.019-.555-.196-.714-.532l-1.19-3.444-1.134 3.444c-.159.336-.397.513-.714.532l-.112.014a.82.82 0 0 1-.469-.147.758.758 0 0 1-.301-.399L17.794 75.7a.935.935 0 0 1 .175-.931.777.777 0 0 1 .609-.259c.187 0 .348.044.483.133a.714.714 0 0 1 .287.399l1.512 4.102 1.106-2.996c.15-.345.406-.518.77-.518.196 0 .348.042.455.126a.956.956 0 0 1 .273.392l1.078 2.926 1.498-4.032a.703.703 0 0 1 .294-.399.95.95 0 0 1 .518-.133c.224 0 .413.082.567.245zm8.015 3.871a.89.89 0 0 1-.588.21h-4.62c.112.55.369.982.77 1.295.401.313.854.469 1.358.469.383 0 .681-.035.896-.105.215-.07.385-.145.511-.224.126-.08.212-.133.259-.161.168-.084.327-.126.476-.126.196 0 .364.07.504.21.14.14.21.303.21.49 0 .252-.13.48-.392.686-.261.215-.611.397-1.05.546-.439.15-.882.224-1.33.224-.784 0-1.468-.163-2.051-.49a3.42 3.42 0 0 1-1.351-1.351c-.317-.574-.476-1.22-.476-1.939 0-.803.168-1.507.504-2.114.336-.607.78-1.071 1.33-1.393a3.438 3.438 0 0 1 1.764-.483 3.27 3.27 0 0 1 1.743.504c.546.336.982.789 1.309 1.358.327.57.49 1.185.49 1.848a.719.719 0 0 1-.266.546zm-5.194-1.19h3.668v-.098c-.037-.392-.229-.728-.574-1.008a1.817 1.817 0 0 0-1.176-.42c-1.083 0-1.722.509-1.918 1.526zm11.459-2.828c.191.159.287.345.287.56 0 .29-.075.506-.224.651a.739.739 0 0 1-.532.217c-.14 0-.299-.033-.476-.098a6.019 6.019 0 0 0-.189-.056 1.142 1.142 0 0 0-.315-.042c-.243 0-.476.075-.7.224-.224.15-.408.376-.553.679-.145.303-.217.665-.217 1.085v3.318a.84.84 0 0 1-.238.609.804.804 0 0 1-.602.245.804.804 0 0 1-.602-.245.84.84 0 0 1-.238-.609v-5.782a.84.84 0 0 1 .238-.609.804.804 0 0 1 .602-.245c.243 0 .443.082.602.245a.84.84 0 0 1 .238.609v.182a2.12 2.12 0 0 1 .924-.875c.401-.2.83-.301 1.288-.301.28 0 .516.08.707.238zm7.623 4.018a.89.89 0 0 1-.588.21h-4.62c.112.55.369.982.77 1.295.401.313.854.469 1.358.469.383 0 .681-.035.896-.105.215-.07.385-.145.511-.224.126-.08.212-.133.259-.161.168-.084.327-.126.476-.126.196 0 .364.07.504.21.14.14.21.303.21.49 0 .252-.13.48-.392.686-.261.215-.611.397-1.05.546-.439.15-.882.224-1.33.224-.784 0-1.468-.163-2.051-.49a3.42 3.42 0 0 1-1.351-1.351c-.317-.574-.476-1.22-.476-1.939 0-.803.168-1.507.504-2.114.336-.607.78-1.071 1.33-1.393a3.438 3.438 0 0 1 1.764-.483 3.27 3.27 0 0 1 1.743.504c.546.336.982.789 1.309 1.358.327.57.49 1.185.49 1.848a.719.719 0 0 1-.266.546zm-5.194-1.19h3.668v-.098c-.037-.392-.229-.728-.574-1.008a1.817 1.817 0 0 0-1.176-.42c-1.083 0-1.722.509-1.918 1.526zm13.524-5.558a.834.834 0 0 1 .238.616v8.652a.84.84 0 0 1-.238.609.804.804 0 0 1-.602.245.793.793 0 0 1-.595-.238.88.88 0 0 1-.245-.602c-.233.27-.548.502-.945.693a2.849 2.849 0 0 1-1.253.287 3.2 3.2 0 0 1-1.75-.497 3.484 3.484 0 0 1-1.239-1.379c-.303-.588-.455-1.255-.455-2.002 0-.747.15-1.416.448-2.009a3.442 3.442 0 0 1 1.225-1.386 3.118 3.118 0 0 1 1.715-.497c.448 0 .868.082 1.26.245.392.163.723.371.994.623v-2.744a.84.84 0 0 1 .238-.609.804.804 0 0 1 .602-.245c.243 0 .443.08.602.238zm-1.946 8.057c.383-.443.574-1.001.574-1.673 0-.672-.191-1.232-.574-1.68-.383-.448-.877-.672-1.484-.672-.597 0-1.087.224-1.47.672-.383.448-.574 1.008-.574 1.68 0 .672.189 1.23.567 1.673.378.443.87.665 1.477.665.607 0 1.101-.222 1.484-.665zm13.552-5.068c.523.331.936.791 1.239 1.379.303.588.455 1.255.455 2.002 0 .747-.15 1.416-.448 2.009a3.442 3.442 0 0 1-1.225 1.386 3.118 3.118 0 0 1-1.715.497c-.448 0-.87-.091-1.267-.273a3.36 3.36 0 0 1-.987-.665v.084a.84.84 0 0 1-.238.609.804.804 0 0 1-.602.245.816.816 0 0 1-.602-.238.834.834 0 0 1-.238-.616v-8.792a.84.84 0 0 1 .238-.609.804.804 0 0 1 .602-.245c.243 0 .443.082.602.245a.84.84 0 0 1 .238.609v2.926c.224-.28.537-.525.938-.735.401-.21.821-.315 1.26-.315a3.2 3.2 0 0 1 1.75.497zm-.49 5.061c.383-.448.574-1.008.574-1.68 0-.672-.189-1.23-.567-1.673-.378-.443-.87-.665-1.477-.665-.607 0-1.101.222-1.484.665-.383.443-.574 1.001-.574 1.673 0 .672.191 1.232.574 1.68.383.448.877.672 1.484.672.597 0 1.087-.224 1.47-.672zm9.744-5.173a.84.84 0 0 1 .238.609v5.95c0 1.213-.327 2.098-.98 2.653-.653.555-1.526.833-2.618.833a6.35 6.35 0 0 1-.973-.077 3.65 3.65 0 0 1-.805-.203c-.457-.196-.686-.467-.686-.812a.72.72 0 0 1 .042-.224.868.868 0 0 1 .287-.469.695.695 0 0 1 .441-.161c.093 0 .182.014.266.042.065.028.18.075.343.14.163.065.336.119.518.161.182.042.371.063.567.063.663 0 1.15-.142 1.463-.427.313-.285.469-.772.469-1.463v-.14c-.485.607-1.241.91-2.268.91-.485 0-.915-.114-1.288-.343a2.316 2.316 0 0 1-.868-.952c-.205-.406-.308-.87-.308-1.393v-4.088a.84.84 0 0 1 .238-.609.804.804 0 0 1 .602-.245c.243 0 .443.082.602.245a.84.84 0 0 1 .238.609v3.584c0 .588.128 1.01.385 1.267.257.257.632.385 1.127.385.485 0 .861-.142 1.127-.427.266-.285.399-.693.399-1.225v-3.584a.84.84 0 0 1 .238-.609.804.804 0 0 1 .602-.245c.243 0 .443.082.602.245zm13.874 6.489c0 .243-.08.441-.238.595a.762.762 0 0 1-.546.231.734.734 0 0 1-.455-.154 1 1 0 0 1-.315-.42l-.728-1.694h-4.172l-.728 1.708a.861.861 0 0 1-.301.413.736.736 0 0 1-.441.147c-.243 0-.427-.065-.553-.196-.126-.13-.189-.308-.189-.532 0-.084.014-.173.042-.266l3.486-8.372a.93.93 0 0 1 .336-.434.733.733 0 0 1 .504-.126.83.83 0 0 1 .784.56l3.444 8.204c.047.121.07.233.07.336zm-5.768-3.052h2.8l-1.414-3.276-1.386 3.276zm13.314-5.768a.77.77 0 0 1 .238.588c0 .243-.08.436-.238.581-.159.145-.364.217-.616.217h-2.198v7.336a.794.794 0 0 1-.266.609.935.935 0 0 1-.658.245.886.886 0 0 1-.644-.245.815.815 0 0 1-.252-.609V73.81H93.1a.862.862 0 0 1-.616-.224.77.77 0 0 1-.238-.588c0-.233.082-.425.245-.574a.869.869 0 0 1 .609-.224h6.216c.252 0 .457.075.616.224zm9.254 4.529a.84.84 0 0 1 .238.609v2.968c0 .327-.145.579-.434.756a5.586 5.586 0 0 1-3.01.854 5.035 5.035 0 0 1-2.562-.679 5.086 5.086 0 0 1-1.862-1.834 4.858 4.858 0 0 1-.686-2.527c0-.915.229-1.757.686-2.527a5.086 5.086 0 0 1 1.862-1.834 5.035 5.035 0 0 1 2.562-.679c.924 0 1.727.187 2.408.56a.77.77 0 0 1 .315.294c.07.121.105.252.105.392a.885.885 0 0 1-.231.609.73.73 0 0 1-.567.259c-.14 0-.294-.037-.462-.112a3.962 3.962 0 0 0-1.568-.322c-.597 0-1.148.152-1.652.455a3.348 3.348 0 0 0-1.197 1.225 3.322 3.322 0 0 0-.441 1.68c0 .607.147 1.167.441 1.68.294.513.693.922 1.197 1.225a3.145 3.145 0 0 0 1.652.455c.261 0 .541-.023.84-.07a4.88 4.88 0 0 0 .784-.182v-1.82h-1.316a.84.84 0 0 1-.609-.238.804.804 0 0 1-.245-.602c0-.243.082-.443.245-.602a.84.84 0 0 1 .609-.238h2.296c.243 0 .443.082.602.245zm7.322 4.802a.882.882 0 0 1-.616.245.844.844 0 0 1-.623-.245.827.827 0 0 1-.245-.609v-8.092c0-.243.084-.446.252-.609a.886.886 0 0 1 .644-.245c.233 0 .434.082.602.245a.815.815 0 0 1 .252.609v8.092a.794.794 0 0 1-.266.609zm8.204-6.538c.364.565.546 1.346.546 2.345v3.584a.84.84 0 0 1-.238.609.804.804 0 0 1-.602.245.804.804 0 0 1-.602-.245.84.84 0 0 1-.238-.609v-3.584c0-.513-.107-.917-.322-1.211-.215-.294-.583-.441-1.106-.441-.541 0-.966.156-1.274.469-.308.313-.462.707-.462 1.183v3.584a.84.84 0 0 1-.238.609.804.804 0 0 1-.602.245.804.804 0 0 1-.602-.245.84.84 0 0 1-.238-.609v-5.782a.84.84 0 0 1 .238-.609.804.804 0 0 1 .602-.245c.243 0 .443.082.602.245a.84.84 0 0 1 .238.609v.238c.252-.336.581-.625.987-.868a2.558 2.558 0 0 1 1.337-.364c.952 0 1.61.282 1.974.847zm7.546-.476c.485.247.728.576.728.987 0 .205-.06.385-.182.539a.577.577 0 0 1-.476.231.894.894 0 0 1-.364-.063 1.307 1.307 0 0 1-.273-.168 1.948 1.948 0 0 0-.259-.175 1.756 1.756 0 0 0-.413-.126 2.303 2.303 0 0 0-.441-.056c-.7 0-1.248.217-1.645.651-.397.434-.595 1.001-.595 1.701 0 .672.2 1.23.602 1.673.401.443.915.665 1.54.665.457 0 .798-.056 1.022-.168.056-.028.133-.077.231-.147a1.59 1.59 0 0 1 .273-.161.757.757 0 0 1 .308-.056c.233 0 .418.075.553.224.135.15.203.34.203.574 0 .224-.13.434-.392.63-.261.196-.607.352-1.036.469-.43.117-.887.175-1.372.175-.719 0-1.351-.168-1.897-.504a3.39 3.39 0 0 1-1.267-1.393c-.299-.593-.448-1.253-.448-1.981 0-.756.156-1.428.469-2.016a3.45 3.45 0 0 1 1.309-1.379c.56-.331 1.195-.497 1.904-.497.793 0 1.433.124 1.918.371zm2.149 7.028c-.145-.145-.217-.352-.217-.623v-.238c0-.27.072-.478.217-.623.145-.145.352-.217.623-.217h.182c.27 0 .478.072.623.217.145.145.217.352.217.623v.238c0 .27-.072.478-.217.623-.145.145-.352.217-.623.217h-.182c-.27 0-.478-.072-.623-.217z"/>
    </g>
</svg>
